<svg width="29" height="32" viewBox="0 0 29 32" fill="none" xmlns="http://www.w3.org/2000/svg">
<g clip-path="url(#clip0_33_3927)">
<path d="M3.91377 5.04305V9.56217V14.0428H8.68862V6.80501V2.28589L12.6033 0.0258789V4.545V14.0428V17.9571V27.4549V31.974L8.68862 29.714V25.1949V17.9571H3.91377V22.4377V26.9568L0 24.6977V20.1786V17.9571V14.0428V11.8222V7.30306V7.30216L3.91377 5.04305Z" fill="#2478B8"/>
<path d="M28.4529 7.28929L15.829 0.00183105V32.0023L19.7491 29.7387V20.3052L21.5575 19.2609L24.5329 20.979V26.9762L28.4529 24.7144V18.715L25.4793 16.9982L28.4529 15.28V7.28929ZM24.5329 13.0169L21.5575 14.7337L19.7491 15.7794V6.7899L24.5329 9.55243V13.0169Z" fill="#717171"/>
</g>
<defs>
<clipPath id="clip0_33_3927">
<rect width="28.4506" height="32" fill="white"/>
</clipPath>
</defs>
</svg>
